<?xml version="1.0" encoding="UTF-8"?>
<!DOCTYPE svg PUBLIC "-//W3C//DTD SVG 1.1//EN" "http://www.w3.org/Graphics/SVG/1.1/DTD/svg11.dtd">
<!-- Creator: CorelDRAW 2017 -->
<svg xmlns="http://www.w3.org/2000/svg" xml:space="preserve" width="750px" height="409px" version="1.1" style="shape-rendering:geometricPrecision; text-rendering:geometricPrecision; image-rendering:optimizeQuality; fill-rule:evenodd; clip-rule:evenodd"
viewBox="0 0 750 409"
 xmlns:xlink="http://www.w3.org/1999/xlink">
 <defs>
  <style type="text/css">
   <![CDATA[
    .fil2 {fill:#2E2E2E}
    .fil3 {fill:white}
    .fil1 {fill:#2E2E2E;fill-rule:nonzero}
    .fil0 {fill:#FF561D;fill-rule:nonzero}
   ]]>
  </style>
 </defs>
 <g id="Ebene_x0020_1">
  <metadata id="CorelCorpID_0Corel-Layer"/>
  <polygon class="fil0" points="731.81,409 25.56,409 25.56,386.9 731.81,386.9 "/>
  <path id="path4524" class="fil1" d="M560.62 332.07c0,30.49 24.71,55.21 55.19,55.21 30.49,0 55.21,-24.72 55.21,-55.21 0,-30.48 -24.72,-55.2 -55.21,-55.2 -30.48,0 -55.19,24.72 -55.19,55.2z"/>
  <path id="path4526" class="fil2" d="M439.7 121.25c-2.94,-3.4 -6.29,-6.33 -12.48,-5.95l-267.06 0 -132.73 105.39c-1.47,3.1 -2.21,5.47 -2.57,7.46l-0.51 93.4c2.47,5.36 5.37,9.93 10.54,10.4l30.8 0c0,-91.31 134.99,-91.49 134.99,0l346.8 0c0,-90.96 136.01,-91.3 136.01,0l37.58 0c3.21,-1.5 6.1,-0.11 10.33,-10.87l0.41 -67.16c-2.18,-6.11 -4.91,-8.44 -7.63,-10.8l-195.21 -32.43 -89.27 -89.44 0 0z"/>
  <path id="path4528" class="fil1" d="M78.55 332.05c0,30.49 24.72,55.2 55.21,55.2 30.49,0 55.2,-24.71 55.2,-55.2 0,-30.49 -24.71,-55.21 -55.2,-55.21 -30.49,0 -55.21,24.72 -55.21,55.21z"/>
  <path id="path4530" class="fil3" d="M127.73 203.51l57 -57.42c1.51,-1.28 2.68,-3.03 5.3,-2.65l99.51 0 0 80.41 -169.6 0c-8.03,-1.61 2.52,-12.43 7.79,-20.34z"/>
  <path id="path4534" class="fil3" d="M501.62 211.72l-66.53 -65.65c-1.5,-1.27 -2.68,-3.02 -5.29,-2.64l-118.29 0 0 80.41 185.04 0c7.04,-2.78 7.99,-7 5.07,-12.12z"/>
 </g>
</svg>
