<svg xmlns="http://www.w3.org/2000/svg" xmlns:xlink="http://www.w3.org/1999/xlink" width="500" zoomAndPan="magnify" viewBox="0 0 375 123.750003" height="165" preserveAspectRatio="xMidYMid meet"><defs></defs><g id="6d97796cf2"><path style=" stroke:none;fill-rule:nonzero;fill:#ffffff;fill-opacity:1;" d="M 4.082031 69.1875 C 4.054688 67.222656 4.035156 65.464844 4.089844 63.789062 C 4.148438 63.671875 4.160156 63.628906 4.183594 63.609375 C 4.203125 63.585938 4.230469 63.570312 4.253906 63.570312 C 61.890625 63.554688 119.527344 63.539062 177.164062 63.523438 C 177.386719 63.523438 177.609375 63.53125 177.828125 63.550781 C 177.875 63.554688 177.921875 63.617188 177.964844 63.652344 C 178.109375 64.613281 178.128906 67.558594 177.996094 69.082031 C 177.914062 69.113281 177.820312 69.179688 177.730469 69.179688 C 119.871094 69.1875 62.015625 69.1875 4.082031 69.1875 Z M 4.082031 69.1875 "></path><path style=" stroke:none;fill-rule:nonzero;fill:#ff561d;fill-opacity:1;" d="M 4.113281 69.1875 C 4.054688 67.222656 4.015625 65.464844 4.125 63.789062 C 4.246094 63.671875 4.277344 63.628906 4.316406 63.609375 C 4.359375 63.585938 4.414062 63.570312 4.464844 63.570312 C 123.328125 63.554688 242.191406 63.539062 361.050781 63.523438 C 361.507812 63.523438 361.964844 63.53125 362.421875 63.550781 C 362.519531 63.554688 362.609375 63.617188 362.703125 63.652344 C 363 64.613281 363.039062 67.558594 362.769531 69.082031 C 362.597656 69.113281 362.40625 69.179688 362.214844 69.179688 C 242.902344 69.1875 123.585938 69.1875 4.113281 69.1875 Z M 4.113281 69.1875 "></path><path style=" stroke:none;fill-rule:nonzero;fill:#ffffff;fill-opacity:1;" d="M 195.507812 35.066406 C 196.441406 33.933594 196.722656 32.738281 197.25 31.679688 C 197.816406 30.542969 198.296875 29.367188 198.816406 28.210938 C 199.3125 27.101562 199.8125 25.992188 200.3125 24.882812 C 200.832031 23.726562 201.351562 22.566406 201.871094 21.410156 C 202.367188 20.300781 202.867188 19.191406 203.367188 18.082031 C 203.886719 16.925781 204.402344 15.765625 204.925781 14.609375 C 205.425781 13.503906 205.9375 12.402344 206.445312 11.289062 L 218.757812 11.289062 C 218.796875 11.773438 218.855469 12.210938 218.863281 12.652344 C 219.003906 19.25 219.140625 25.847656 219.277344 32.445312 C 219.289062 33.003906 219.3125 33.5625 219.355469 34.117188 C 219.367188 34.296875 219.464844 34.46875 219.585938 34.847656 C 220.558594 32.792969 221.195312 30.824219 221.949219 28.902344 C 222.730469 26.921875 223.480469 24.929688 224.242188 22.941406 C 224.988281 21 225.734375 19.058594 226.480469 17.117188 C 227.222656 15.179688 227.964844 13.242188 228.714844 11.285156 L 241.109375 11.285156 C 241.332031 11.917969 240.925781 12.382812 240.722656 12.867188 C 238.636719 17.878906 236.527344 22.878906 234.425781 27.882812 C 230.988281 36.0625 227.550781 44.242188 224.109375 52.425781 C 223.957031 52.792969 223.785156 53.15625 223.609375 53.550781 L 206.695312 53.550781 C 206.34375 53.082031 206.472656 52.554688 206.460938 52.0625 C 206.316406 45.875 206.179688 39.683594 206.039062 33.492188 C 206.027344 33 205.988281 32.503906 205.960938 32.011719 C 205.441406 31.941406 205.398438 32.316406 205.296875 32.539062 C 204.53125 34.195312 203.792969 35.867188 203.039062 37.53125 C 200.808594 42.476562 198.578125 47.425781 196.34375 52.371094 C 196.179688 52.738281 196 53.097656 195.863281 53.375 C 195.746094 53.472656 195.710938 53.511719 195.664062 53.53125 C 195.621094 53.554688 195.570312 53.570312 195.523438 53.570312 C 190.953125 53.582031 186.386719 53.59375 181.816406 53.597656 C 181.566406 53.597656 181.316406 53.570312 180.976562 53.550781 C 180.933594 53.203125 180.851562 52.867188 180.855469 52.53125 C 180.894531 45.476562 180.945312 38.417969 180.988281 31.363281 C 181.03125 25.273438 181.066406 19.179688 181.105469 13.089844 C 181.109375 12.539062 181.105469 11.988281 181.105469 11.546875 C 181.246094 11.402344 181.277344 11.363281 181.320312 11.332031 C 181.355469 11.304688 181.40625 11.277344 181.449219 11.277344 C 186.171875 11.261719 190.890625 11.246094 195.609375 11.238281 C 195.859375 11.238281 196.105469 11.269531 196.445312 11.292969 C 196.59375 12.628906 196.363281 13.925781 196.355469 15.222656 C 196.347656 16.542969 196.265625 17.863281 196.210938 19.179688 C 196.15625 20.5 196.097656 21.816406 196.035156 23.132812 C 195.972656 24.402344 195.898438 25.667969 195.84375 26.9375 C 195.789062 28.253906 195.757812 29.574219 195.707031 30.894531 C 195.652344 32.199219 195.582031 33.503906 195.507812 35.066406 Z M 195.507812 35.066406 "></path><path style=" stroke:none;fill-rule:nonzero;fill:#ff561d;fill-opacity:1;" d="M 91.742188 11.25 C 96.558594 11.25 101.21875 11.242188 105.871094 11.253906 C 106.261719 11.851562 106.179688 12.386719 106.0625 12.933594 C 105.167969 17.125 104.277344 21.320312 103.378906 25.507812 C 103.242188 26.144531 103.066406 26.773438 102.882812 27.511719 C 103.167969 27.585938 103.390625 27.691406 103.613281 27.691406 C 106.558594 27.703125 109.503906 27.699219 112.449219 27.699219 C 112.601562 27.699219 112.753906 27.703125 112.90625 27.6875 C 113.417969 27.628906 113.648438 27.4375 113.746094 26.957031 C 114.269531 24.386719 114.777344 21.816406 115.3125 19.25 C 115.804688 16.878906 116.316406 14.515625 116.835938 12.152344 C 116.996094 11.429688 117.167969 11.304688 117.84375 11.257812 C 118.046875 11.242188 118.25 11.25 118.453125 11.25 C 122.464844 11.25 126.476562 11.246094 130.488281 11.25 C 130.832031 11.253906 131.179688 11.296875 131.621094 11.328125 C 131.65625 11.722656 131.761719 12.070312 131.707031 12.386719 C 131.539062 13.332031 131.300781 14.261719 131.105469 15.199219 C 130.503906 18.058594 129.914062 20.921875 129.308594 23.785156 C 128.796875 26.199219 128.277344 28.617188 127.75 31.03125 C 127.269531 33.25 126.769531 35.460938 126.292969 37.679688 C 125.910156 39.453125 125.546875 41.230469 125.183594 43.011719 C 124.726562 45.230469 124.28125 47.457031 123.824219 49.679688 C 123.609375 50.714844 123.386719 51.75 123.136719 52.78125 C 123.082031 53.015625 122.90625 53.226562 122.769531 53.480469 C 121.5625 53.71875 120.347656 53.570312 119.136719 53.59375 C 117.921875 53.621094 116.703125 53.601562 115.484375 53.601562 C 114.265625 53.601562 113.046875 53.617188 111.828125 53.597656 C 110.621094 53.578125 109.40625 53.691406 108.101562 53.492188 C 109.175781 47.847656 110.496094 42.324219 111.546875 36.75 C 110.421875 36.492188 103.753906 36.421875 101.265625 36.625 C 100.6875 37.230469 100.652344 38.085938 100.488281 38.847656 C 99.792969 42.046875 99.183594 45.269531 98.53125 48.480469 C 98.230469 49.960938 97.90625 51.441406 97.585938 52.917969 C 97.5 53.308594 97.238281 53.53125 96.84375 53.570312 C 96.59375 53.597656 96.339844 53.601562 96.085938 53.601562 C 92.023438 53.601562 87.960938 53.601562 83.898438 53.597656 C 83.597656 53.597656 83.300781 53.5625 83.0625 53.546875 C 82.644531 53.253906 82.667969 52.878906 82.734375 52.539062 C 83.144531 50.511719 83.578125 48.488281 84.003906 46.46875 C 84.484375 44.199219 84.96875 41.929688 85.449219 39.664062 C 85.78125 38.082031 86.101562 36.503906 86.429688 34.921875 C 86.925781 32.554688 87.40625 30.183594 87.917969 27.816406 C 88.34375 25.84375 88.820312 23.882812 89.246094 21.914062 C 89.722656 19.695312 90.167969 17.46875 90.632812 15.25 C 90.835938 14.261719 91.03125 13.269531 91.269531 12.292969 C 91.347656 11.960938 91.550781 11.664062 91.742188 11.25 Z M 91.742188 11.25 "></path><path style=" stroke:none;fill-rule:nonzero;fill:#ffffff;fill-opacity:1;" d="M 298.707031 20.101562 C 297.976562 23.582031 297.183594 26.921875 296.527344 30.339844 C 297.621094 30.566406 298.632812 30.429688 299.636719 30.464844 C 301.492188 30.527344 302.980469 29.75 304.195312 28.410156 C 305.273438 27.21875 305.933594 25.816406 306.132812 24.199219 C 306.4375 21.714844 305.332031 20.335938 302.832031 20.109375 C 302.78125 20.105469 302.730469 20.101562 302.679688 20.101562 C 301.414062 20.097656 300.148438 20.101562 298.707031 20.101562 Z M 285.75 11.292969 C 286.25 11.269531 286.648438 11.226562 287.042969 11.226562 C 293.589844 11.226562 300.136719 11.230469 306.683594 11.226562 C 309.179688 11.226562 311.644531 11.476562 314.058594 12.140625 C 315.285156 12.476562 316.453125 12.949219 317.542969 13.617188 C 320.125 15.207031 321.472656 17.550781 321.582031 20.539062 C 321.785156 26.136719 319.488281 30.554688 315.046875 33.898438 C 314.605469 34.230469 314.140625 34.53125 313.621094 34.890625 C 314.050781 35.1875 314.429688 35.433594 314.789062 35.699219 C 316.230469 36.765625 316.960938 38.199219 317.007812 39.996094 C 317.039062 41.074219 316.785156 42.105469 316.585938 43.152344 C 316.25 44.894531 315.921875 46.636719 315.621094 48.386719 C 315.445312 49.40625 315.507812 50.4375 315.957031 51.367188 C 316.304688 52.089844 316.175781 52.722656 315.953125 53.480469 C 315.710938 53.523438 315.472656 53.59375 315.234375 53.59375 C 310.714844 53.601562 306.199219 53.597656 301.683594 53.589844 C 301.582031 53.589844 301.484375 53.5625 301.289062 53.53125 C 300.445312 52.542969 300.289062 51.304688 300.4375 50.027344 C 300.550781 49.023438 300.78125 48.03125 300.984375 47.035156 C 301.308594 45.449219 301.667969 43.867188 301.976562 42.273438 C 302.078125 41.730469 302.105469 41.164062 302.09375 40.609375 C 302.066406 39.644531 301.539062 39.003906 300.640625 38.679688 C 300.308594 38.558594 299.957031 38.429688 299.613281 38.414062 C 298.046875 38.347656 296.480469 38.3125 294.839844 38.4375 C 293.761719 43.46875 292.691406 48.460938 291.609375 53.503906 C 289.953125 53.710938 288.335938 53.570312 286.722656 53.597656 C 285.097656 53.621094 283.476562 53.601562 281.851562 53.601562 L 277.101562 53.601562 C 276.960938 53.480469 276.914062 53.453125 276.898438 53.417969 C 276.878906 53.375 276.871094 53.316406 276.882812 53.269531 C 279.824219 39.332031 282.769531 25.398438 285.75 11.292969 Z M 285.75 11.292969 "></path><path style=" stroke:none;fill-rule:nonzero;fill:#ff561d;fill-opacity:1;" d="M 150.195312 30.246094 C 150.875 30.410156 154.007812 30.53125 154.550781 30.40625 C 154.648438 30.386719 154.746094 30.347656 154.839844 30.3125 C 157.007812 29.425781 158.636719 28.027344 159.285156 25.679688 C 159.433594 25.148438 159.632812 24.621094 159.726562 24.078125 C 159.976562 22.609375 159.378906 21 157.710938 20.445312 C 157.039062 20.21875 156.367188 20.019531 155.636719 20.078125 C 154.539062 20.167969 153.421875 19.941406 152.339844 20.214844 C 152.207031 20.546875 152.050781 20.816406 151.988281 21.109375 C 151.351562 24.058594 150.726562 27.007812 150.109375 29.964844 C 150.089844 30.046875 150.164062 30.152344 150.195312 30.246094 Z M 167.261719 34.875 C 167.941406 35.492188 168.496094 36 169.054688 36.503906 C 170.023438 37.375 170.386719 38.503906 170.457031 39.761719 C 170.527344 40.984375 170.375 42.175781 170.074219 43.367188 C 169.769531 44.589844 169.4375 45.816406 169.289062 47.0625 C 169.15625 48.214844 169.238281 49.394531 169.253906 50.5625 C 169.257812 50.800781 169.332031 51.082031 169.464844 51.277344 C 169.984375 52.023438 169.777344 52.71875 169.335938 53.492188 C 169.046875 53.523438 168.703125 53.597656 168.359375 53.597656 C 164.144531 53.605469 159.929688 53.601562 155.714844 53.597656 C 155.464844 53.597656 155.210938 53.578125 154.917969 53.5625 C 154.300781 52.921875 154.011719 52.171875 153.984375 51.257812 C 153.945312 49.878906 154.136719 48.539062 154.453125 47.203125 C 154.816406 45.683594 155.1875 44.164062 155.453125 42.625 C 155.589844 41.832031 155.539062 41.003906 155.507812 40.195312 C 155.476562 39.445312 154.921875 39.035156 154.324219 38.730469 C 153.96875 38.550781 153.554688 38.410156 153.164062 38.398438 C 151.597656 38.359375 150.03125 38.300781 148.46875 38.4375 C 147.933594 39.441406 147.886719 40.519531 147.652344 41.539062 C 147.011719 44.289062 146.449219 47.054688 145.867188 49.816406 C 145.710938 50.558594 145.617188 51.308594 145.457031 52.050781 C 145.351562 52.535156 145.175781 53.003906 145.050781 53.433594 C 143.796875 53.640625 132.367188 53.671875 130.765625 53.484375 C 130.433594 53.007812 130.523438 52.46875 130.636719 51.921875 C 131.328125 48.667969 132 45.410156 132.703125 42.15625 C 133.246094 39.644531 133.839844 37.140625 134.371094 34.625 C 134.949219 31.910156 135.472656 29.1875 136.039062 26.476562 C 136.449219 24.5 136.902344 22.53125 137.324219 20.558594 C 137.8125 18.292969 138.292969 16.023438 138.769531 13.753906 C 138.894531 13.164062 138.996094 12.566406 139.109375 11.972656 C 139.183594 11.578125 139.421875 11.324219 139.816406 11.289062 C 140.269531 11.246094 140.726562 11.25 141.183594 11.25 C 147.785156 11.246094 154.386719 11.25 160.984375 11.246094 C 161.898438 11.246094 162.796875 11.414062 163.695312 11.484375 C 164.972656 11.582031 166.183594 11.875 167.410156 12.160156 C 169.214844 12.578125 170.824219 13.40625 172.296875 14.503906 C 173.082031 15.089844 173.679688 15.875 174.085938 16.742188 C 174.621094 17.882812 175.113281 19.0625 175.03125 20.378906 C 175.007812 20.785156 175.003906 21.195312 175.03125 21.597656 C 175.175781 23.886719 174.464844 25.992188 173.601562 28.050781 C 173.328125 28.695312 172.835938 29.238281 172.464844 29.84375 C 171.359375 31.640625 169.9375 33.117188 168.128906 34.214844 C 167.828125 34.398438 167.566406 34.640625 167.261719 34.875 Z M 167.261719 34.875 "></path><path style=" stroke:none;fill-rule:nonzero;fill:#ffffff;fill-opacity:1;" d="M 330.722656 11.28125 L 345.484375 11.28125 C 345.535156 11.824219 345.378906 12.304688 345.28125 12.773438 C 344.042969 18.625 342.785156 24.476562 341.539062 30.328125 C 341.457031 30.71875 341.414062 31.121094 341.304688 31.800781 C 341.671875 31.410156 341.886719 31.242188 342.023438 31.023438 C 343.847656 28.203125 345.882812 25.546875 348.164062 23.082031 C 351.640625 19.332031 355.546875 16.132812 360.117188 13.78125 C 363.078125 12.257812 367.335938 10.890625 369.832031 10.816406 C 369.863281 10.941406 369.957031 11.089844 369.921875 11.203125 C 368.640625 15.476562 367.347656 19.75 366.054688 24.019531 C 366.027344 24.109375 365.949219 24.183594 365.839844 24.347656 C 361.496094 24.917969 357.484375 26.433594 354.15625 29.367188 C 354.027344 30.070312 354.371094 30.554688 354.570312 31.058594 C 357.3125 38.042969 360.070312 45.023438 362.820312 52.007812 C 363.003906 52.46875 363.164062 52.941406 363.335938 53.421875 C 362.007812 53.675781 351.457031 53.753906 346.707031 53.5625 C 346.226562 53.28125 346.175781 52.730469 345.988281 52.28125 C 344.644531 49.050781 343.332031 45.804688 341.988281 42.574219 C 341.800781 42.125 341.761719 41.570312 341.214844 41.246094 C 340.066406 43.171875 339.09375 45.171875 338.242188 47.234375 C 337.40625 49.257812 337.019531 51.398438 336.617188 53.546875 L 321.808594 53.546875 C 321.863281 53.046875 321.878906 52.601562 321.96875 52.175781 C 323.726562 43.890625 325.496094 35.609375 327.257812 27.328125 C 328.3125 22.367188 329.359375 17.40625 330.414062 12.445312 C 330.496094 12.058594 330.617188 11.675781 330.722656 11.28125 Z M 330.722656 11.28125 "></path><path style=" stroke:none;fill-rule:nonzero;fill:#ff561d;fill-opacity:1;" d="M 56.675781 38.519531 C 58.15625 38.761719 61.667969 38.726562 62.789062 38.445312 C 62.820312 38.230469 62.878906 37.988281 62.886719 37.746094 C 62.898438 37.394531 62.957031 37.007812 62.851562 36.6875 C 62.484375 35.59375 62.628906 34.476562 62.589844 33.367188 C 62.570312 32.761719 62.550781 32.152344 62.5 31.550781 C 62.449219 30.949219 62.332031 30.351562 62.296875 29.75 C 62.257812 29.09375 62.277344 28.429688 62.289062 27.769531 C 62.296875 27.175781 62.148438 26.644531 61.761719 25.972656 C 59.886719 29.929688 58.464844 33.882812 56.703125 37.6875 C 56.621094 37.863281 56.601562 38.070312 56.566406 38.269531 C 56.558594 38.308594 56.601562 38.359375 56.675781 38.519531 Z M 78.546875 53.476562 C 78.277344 53.515625 77.988281 53.589844 77.695312 53.597656 C 72.109375 53.753906 65.261719 53.667969 63.933594 53.410156 C 63.65625 51.324219 63.714844 49.144531 63.128906 47.109375 C 61.9375 46.84375 55.449219 46.769531 52.46875 46.972656 C 52.292969 47.253906 52.066406 47.578125 51.878906 47.925781 C 51.011719 49.53125 50.136719 51.132812 49.316406 52.757812 C 48.996094 53.390625 48.5625 53.617188 47.871094 53.613281 C 44.316406 53.585938 40.765625 53.601562 37.214844 53.597656 C 37.015625 53.59375 36.820312 53.546875 36.523438 53.507812 C 36.570312 53.238281 36.558594 52.984375 36.660156 52.789062 C 37.335938 51.484375 38.035156 50.195312 38.722656 48.898438 C 38.9375 48.496094 39.140625 48.085938 39.351562 47.679688 C 41.363281 43.757812 43.371094 39.832031 45.390625 35.914062 C 46.550781 33.664062 47.730469 31.421875 48.902344 29.175781 C 50.191406 26.707031 51.480469 24.234375 52.769531 21.765625 C 53.757812 19.882812 54.746094 18 55.742188 16.121094 C 56.476562 14.734375 57.242188 13.363281 57.960938 11.96875 C 58.230469 11.449219 58.605469 11.214844 59.175781 11.25 C 59.328125 11.257812 59.480469 11.25 59.632812 11.25 C 64.148438 11.25 68.664062 11.242188 73.179688 11.25 C 74.628906 11.253906 74.753906 11.386719 74.777344 12.792969 C 74.792969 13.652344 74.753906 14.503906 75.03125 15.347656 C 75.15625 15.71875 75.054688 16.15625 75.089844 16.558594 C 75.132812 17.058594 75.207031 17.558594 75.273438 18.054688 C 75.296875 18.203125 75.378906 18.355469 75.367188 18.5 C 75.214844 20.078125 75.730469 21.609375 75.703125 23.179688 C 75.695312 23.578125 75.796875 23.976562 75.859375 24.375 C 75.878906 24.523438 75.96875 24.671875 75.964844 24.816406 C 75.910156 26.1875 76.160156 27.53125 76.292969 28.886719 C 76.464844 30.640625 76.53125 32.40625 76.859375 34.140625 C 76.90625 34.386719 76.90625 34.644531 76.910156 34.898438 C 76.925781 35.808594 76.863281 36.71875 77.171875 37.609375 C 77.28125 37.929688 77.210938 38.3125 77.21875 38.667969 C 77.230469 39.375 77.183594 40.078125 77.445312 40.769531 C 77.566406 41.085938 77.511719 41.46875 77.519531 41.824219 C 77.535156 42.480469 77.507812 43.132812 77.734375 43.777344 C 77.863281 44.144531 77.789062 44.582031 77.828125 44.984375 C 77.890625 45.582031 77.972656 46.179688 78.042969 46.78125 C 78.078125 47.082031 78.121094 47.382812 78.125 47.683594 C 78.148438 48.59375 78.179688 49.484375 78.371094 50.394531 C 78.570312 51.367188 78.496094 52.398438 78.546875 53.476562 Z M 78.546875 53.476562 "></path><path style=" stroke:none;fill-rule:nonzero;fill:#ffffff;fill-opacity:1;" d="M 236.839844 53.492188 C 239.832031 39.386719 242.808594 25.363281 245.773438 11.375 C 247.09375 11.183594 278.425781 11.171875 279.792969 11.347656 C 279.832031 12.5 278.949219 17.007812 278.09375 20 C 276.515625 20.191406 274.898438 20.054688 273.289062 20.078125 C 271.714844 20.105469 270.140625 20.085938 268.566406 20.085938 L 258.929688 20.085938 C 258.261719 22.605469 257.800781 25.078125 257.277344 27.496094 C 257.6875 27.988281 258.175781 27.824219 258.601562 27.828125 C 262.660156 27.839844 266.722656 27.832031 270.785156 27.835938 C 271.335938 27.835938 271.890625 27.851562 272.546875 27.863281 C 272.546875 28.195312 272.589844 28.441406 272.539062 28.667969 C 272.0625 30.953125 271.574219 33.230469 271.085938 35.511719 C 271.054688 35.65625 270.984375 35.796875 270.890625 36.042969 C 270.480469 36.070312 270.042969 36.125 269.601562 36.125 C 265.4375 36.128906 261.277344 36.128906 257.113281 36.128906 L 255.570312 36.128906 C 254.992188 37.527344 254.859375 38.941406 254.558594 40.3125 C 254.257812 41.683594 253.875 43.046875 253.757812 44.5 C 254.335938 44.789062 254.898438 44.6875 255.4375 44.6875 C 259.804688 44.699219 264.171875 44.695312 268.535156 44.695312 C 269.652344 44.695312 270.769531 44.6875 271.886719 44.699219 C 272.179688 44.703125 272.472656 44.769531 272.878906 44.820312 C 272.261719 47.761719 271.664062 50.625 271.070312 53.453125 C 269.824219 53.636719 238.921875 53.675781 236.839844 53.492188 Z M 236.839844 53.492188 "></path><path style=" stroke:none;fill-rule:nonzero;fill:#ff561d;fill-opacity:1;" d="M 48.144531 11.476562 C 48.167969 11.605469 48.277344 11.816406 48.230469 11.984375 C 47.523438 14.605469 47.214844 17.324219 46.425781 19.839844 C 45.792969 20.207031 45.21875 20.078125 44.671875 20.078125 C 39.542969 20.089844 34.414062 20.085938 29.285156 20.085938 C 28.730469 20.085938 28.171875 20.085938 27.710938 20.085938 C 27.21875 20.347656 27.0625 20.710938 26.972656 21.117188 C 26.480469 23.386719 25.980469 25.652344 25.503906 27.921875 C 25.433594 28.253906 25.496094 28.613281 25.496094 28.9375 C 25.960938 29.367188 26.492188 29.214844 26.980469 29.21875 C 30.941406 29.230469 34.902344 29.222656 38.863281 29.222656 C 39.363281 29.222656 39.867188 29.222656 40.242188 29.222656 C 40.75 29.644531 40.675781 30.066406 40.59375 30.457031 C 40.289062 31.9375 39.953125 33.414062 39.632812 34.890625 C 39.421875 35.875 39.214844 36.859375 39.007812 37.824219 C 38.535156 38.195312 38.007812 38.054688 37.515625 38.054688 C 33.402344 38.066406 29.289062 38.058594 25.175781 38.0625 C 24.625 38.0625 24.074219 38.09375 23.441406 38.113281 C 22.203125 43.21875 21.285156 48.324219 20.128906 53.433594 C 19.878906 53.488281 19.640625 53.589844 19.402344 53.589844 C 14.984375 53.597656 10.566406 53.597656 6.148438 53.59375 C 5.953125 53.59375 5.757812 53.539062 5.457031 53.5 C 5.429688 53.199219 5.328125 52.902344 5.382812 52.636719 C 6.242188 48.59375 7.125 44.554688 7.996094 40.511719 C 8.910156 36.273438 9.824219 32.035156 10.714844 27.789062 C 11.28125 25.074219 11.78125 22.347656 12.347656 19.628906 C 12.816406 17.359375 13.332031 15.097656 13.839844 12.832031 C 13.949219 12.347656 14.113281 11.871094 14.226562 11.488281 C 14.378906 11.390625 14.417969 11.355469 14.464844 11.335938 C 14.507812 11.3125 14.558594 11.289062 14.605469 11.289062 C 25.320312 11.273438 36.035156 11.261719 46.746094 11.246094 C 47.050781 11.246094 47.355469 11.25 47.660156 11.265625 C 47.757812 11.269531 47.859375 11.304688 47.953125 11.339844 C 48 11.355469 48.035156 11.394531 48.144531 11.476562 Z M 48.144531 11.476562 "></path><g style="fill:#ffffff;fill-opacity:1;"><g transform="translate(218.289884, 105.555618)"><path style="stroke:none" d="M 11.546875 0 L 0.078125 0 L 5.21875 -24.25 L 16.09375 -24.25 C 19.050781 -24.25 21.320312 -23.898438 22.90625 -23.203125 C 24.488281 -22.515625 25.28125 -21.328125 25.28125 -19.640625 C 25.28125 -18.566406 25.035156 -17.519531 24.546875 -16.5 C 24.054688 -15.488281 23.265625 -14.609375 22.171875 -13.859375 C 21.078125 -13.109375 19.613281 -12.566406 17.78125 -12.234375 C 19.820312 -11.941406 21.304688 -11.492188 22.234375 -10.890625 C 23.171875 -10.285156 23.640625 -9.375 23.640625 -8.15625 C 23.640625 -6.769531 23.195312 -5.453125 22.3125 -4.203125 C 21.4375 -2.953125 20.109375 -1.9375 18.328125 -1.15625 C 16.554688 -0.382812 14.296875 0 11.546875 0 Z M 12.703125 -19.53125 L 11.59375 -14.265625 L 13.375 -14.265625 C 14.0625 -14.265625 14.65625 -14.441406 15.15625 -14.796875 C 15.664062 -15.160156 16.0625 -15.625 16.34375 -16.1875 C 16.632812 -16.75 16.78125 -17.300781 16.78125 -17.84375 C 16.78125 -18.96875 15.976562 -19.53125 14.375 -19.53125 Z M 10.765625 -10.375 L 9.546875 -4.71875 L 11.4375 -4.71875 C 12.226562 -4.71875 12.890625 -4.914062 13.421875 -5.3125 C 13.960938 -5.707031 14.367188 -6.203125 14.640625 -6.796875 C 14.921875 -7.390625 15.0625 -7.984375 15.0625 -8.578125 C 15.0625 -9.222656 14.851562 -9.679688 14.4375 -9.953125 C 14.019531 -10.234375 13.453125 -10.375 12.734375 -10.375 Z M 10.765625 -10.375 "></path></g></g><g style="fill:#ffffff;fill-opacity:1;"><g transform="translate(243.456027, 105.555618)"><path style="stroke:none" d="M 8.375 -20.890625 C 7.132812 -20.890625 6.1875 -21.117188 5.53125 -21.578125 C 4.875 -22.046875 4.546875 -22.6875 4.546875 -23.5 C 4.546875 -24.21875 4.789062 -24.898438 5.28125 -25.546875 C 5.769531 -26.203125 6.445312 -26.738281 7.3125 -27.15625 C 8.1875 -27.582031 9.195312 -27.796875 10.34375 -27.796875 C 11.582031 -27.796875 12.519531 -27.566406 13.15625 -27.109375 C 13.800781 -26.660156 14.125 -26.03125 14.125 -25.21875 C 14.125 -24.5 13.882812 -23.804688 13.40625 -23.140625 C 12.9375 -22.472656 12.265625 -21.929688 11.390625 -21.515625 C 10.515625 -21.097656 9.507812 -20.890625 8.375 -20.890625 Z M 8.21875 0 L 0.140625 0 L 4.296875 -19.5625 L 12.375 -19.5625 Z M 8.21875 0 "></path></g></g><g style="fill:#ffffff;fill-opacity:1;"><g transform="translate(255.896113, 105.555618)"><path style="stroke:none" d="M 5.109375 0.53125 C 3.566406 0.53125 2.472656 0.222656 1.828125 -0.390625 C 1.179688 -1.015625 0.859375 -1.875 0.859375 -2.96875 C 0.859375 -3.59375 0.953125 -4.34375 1.140625 -5.21875 L 5.765625 -26.96875 L 13.84375 -26.96875 L 9.375 -5.96875 C 9.300781 -5.664062 9.265625 -5.441406 9.265625 -5.296875 C 9.265625 -5.035156 9.359375 -4.90625 9.546875 -4.90625 C 9.671875 -4.90625 9.84375 -4.992188 10.0625 -5.171875 C 10.289062 -5.347656 10.5625 -5.640625 10.875 -6.046875 L 12.546875 -4.078125 C 11.804688 -2.523438 10.769531 -1.367188 9.4375 -0.609375 C 8.101562 0.148438 6.660156 0.53125 5.109375 0.53125 Z M 5.109375 0.53125 "></path></g></g><g style="fill:#ffffff;fill-opacity:1;"><g transform="translate(268.586426, 105.555618)"><path style="stroke:none" d="M 4.96875 0.53125 C 3.375 0.53125 2.210938 0.0546875 1.484375 -0.890625 C 0.753906 -1.847656 0.390625 -3.148438 0.390625 -4.796875 C 0.390625 -6.628906 0.660156 -8.453125 1.203125 -10.265625 C 1.753906 -12.078125 2.578125 -13.722656 3.671875 -15.203125 C 4.773438 -16.679688 6.144531 -17.863281 7.78125 -18.75 C 9.414062 -19.644531 11.316406 -20.09375 13.484375 -20.09375 C 13.816406 -20.09375 14.144531 -20.054688 14.46875 -19.984375 C 14.789062 -19.921875 15.109375 -19.828125 15.421875 -19.703125 L 16.921875 -26.96875 L 25 -26.96875 L 19.28125 0.03125 L 11.1875 0.03125 L 12.15625 -4.546875 C 11.007812 -2.734375 9.832031 -1.429688 8.625 -0.640625 C 7.425781 0.140625 6.207031 0.53125 4.96875 0.53125 Z M 9.4375 -4.21875 C 9.9375 -4.21875 10.472656 -4.566406 11.046875 -5.265625 C 11.617188 -5.972656 12.148438 -6.878906 12.640625 -7.984375 C 13.128906 -9.097656 13.503906 -10.25 13.765625 -11.4375 L 14.453125 -14.734375 C 14.066406 -15.140625 13.597656 -15.34375 13.046875 -15.34375 C 12.648438 -15.34375 12.238281 -15.109375 11.8125 -14.640625 C 11.394531 -14.179688 10.988281 -13.582031 10.59375 -12.84375 C 10.207031 -12.101562 9.851562 -11.289062 9.53125 -10.40625 C 9.207031 -9.519531 8.957031 -8.65625 8.78125 -7.8125 C 8.601562 -6.96875 8.515625 -6.222656 8.515625 -5.578125 C 8.515625 -4.671875 8.820312 -4.21875 9.4375 -4.21875 Z M 9.4375 -4.21875 "></path></g></g><g style="fill:#ffffff;fill-opacity:1;"><g transform="translate(292.000958, 105.555618)"><path style="stroke:none" d="M 4.5 0.53125 C 3.289062 0.53125 2.375 0.222656 1.75 -0.390625 C 1.132812 -1.015625 0.828125 -1.882812 0.828125 -3 C 0.828125 -3.257812 0.835938 -3.523438 0.859375 -3.796875 C 0.878906 -4.078125 0.925781 -4.363281 1 -4.65625 L 4.15625 -19.53125 L 12.234375 -19.53125 L 9.328125 -5.6875 C 9.304688 -5.570312 9.289062 -5.453125 9.28125 -5.328125 C 9.269531 -5.210938 9.265625 -5.09375 9.265625 -4.96875 C 9.265625 -4.425781 9.488281 -4.15625 9.9375 -4.15625 C 10.394531 -4.15625 10.851562 -4.46875 11.3125 -5.09375 C 11.78125 -5.726562 12.242188 -6.566406 12.703125 -7.609375 C 13.171875 -8.660156 13.609375 -9.804688 14.015625 -11.046875 L 15.8125 -19.53125 L 23.890625 -19.53125 L 19.78125 0 L 11.703125 0 L 12.59375 -4.25 C 11.207031 -2.507812 9.894531 -1.273438 8.65625 -0.546875 C 7.414062 0.171875 6.03125 0.53125 4.5 0.53125 Z M 4.5 0.53125 "></path></g></g><g style="fill:#ffffff;fill-opacity:1;"><g transform="translate(315.915943, 105.555618)"><path style="stroke:none" d="M 8.125 0 L 0.03125 0 L 4.1875 -19.53125 L 12.234375 -19.53125 L 11.34375 -15.265625 C 12.71875 -17.035156 14.023438 -18.273438 15.265625 -18.984375 C 16.503906 -19.703125 17.890625 -20.0625 19.421875 -20.0625 C 21.898438 -19.988281 23.140625 -18.8125 23.140625 -16.53125 C 23.140625 -16.050781 23.066406 -15.5 22.921875 -14.875 L 19.78125 0 L 11.703125 0 L 14.59375 -13.8125 C 14.664062 -14.09375 14.703125 -14.328125 14.703125 -14.515625 C 14.703125 -15.066406 14.472656 -15.34375 14.015625 -15.34375 C 13.566406 -15.34375 13.101562 -15.023438 12.625 -14.390625 C 12.144531 -13.765625 11.675781 -12.929688 11.21875 -11.890625 C 10.769531 -10.859375 10.332031 -9.71875 9.90625 -8.46875 Z M 8.125 0 "></path></g></g><g style="fill:#ffffff;fill-opacity:1;"><g transform="translate(339.616445, 105.555618)"><path style="stroke:none" d="M 6.828125 8.296875 C 5.304688 8.296875 3.890625 8.128906 2.578125 7.796875 C 1.265625 7.460938 0.21875 6.878906 -0.5625 6.046875 C -1.351562 5.210938 -1.75 4.054688 -1.75 2.578125 L 6.4375 1.28125 C 6.4375 2.832031 6.863281 3.609375 7.71875 3.609375 C 8.5625 3.609375 9.289062 3.195312 9.90625 2.375 C 10.53125 1.550781 11.039062 0.175781 11.4375 -1.75 L 12.046875 -4.5 C 11.097656 -3.238281 10.019531 -2.226562 8.8125 -1.46875 C 7.613281 -0.707031 6.40625 -0.328125 5.1875 -0.328125 C 1.988281 -0.328125 0.390625 -2.054688 0.390625 -5.515625 C 0.390625 -6.773438 0.570312 -8.082031 0.9375 -9.4375 C 1.3125 -10.800781 1.847656 -12.113281 2.546875 -13.375 C 3.253906 -14.632812 4.132812 -15.765625 5.1875 -16.765625 C 6.238281 -17.773438 7.445312 -18.578125 8.8125 -19.171875 C 10.1875 -19.765625 11.707031 -20.0625 13.375 -20.0625 C 14.832031 -20.0625 16.109375 -19.988281 17.203125 -19.84375 C 18.296875 -19.707031 19.304688 -19.5 20.234375 -19.21875 C 21.171875 -18.945312 22.101562 -18.585938 23.03125 -18.140625 L 19.421875 -1.1875 C 18.921875 1.195312 18.066406 3.078125 16.859375 4.453125 C 15.660156 5.828125 14.203125 6.8125 12.484375 7.40625 C 10.765625 8 8.878906 8.296875 6.828125 8.296875 Z M 9.484375 -4.75 C 9.953125 -4.75 10.46875 -5.097656 11.03125 -5.796875 C 11.59375 -6.503906 12.117188 -7.394531 12.609375 -8.46875 C 13.097656 -9.539062 13.460938 -10.628906 13.703125 -11.734375 L 14.34375 -14.734375 C 14.007812 -15.140625 13.53125 -15.34375 12.90625 -15.34375 C 12.457031 -15.34375 11.96875 -15.019531 11.4375 -14.375 C 10.914062 -13.726562 10.429688 -12.914062 9.984375 -11.9375 C 9.546875 -10.96875 9.179688 -9.960938 8.890625 -8.921875 C 8.609375 -7.890625 8.46875 -6.96875 8.46875 -6.15625 C 8.46875 -5.21875 8.804688 -4.75 9.484375 -4.75 Z M 9.484375 -4.75 "></path></g></g></g></svg>